<svg width="1052" height="119" viewBox="0 0 1052 119" fill="none" xmlns="http://www.w3.org/2000/svg">
<path d="M97.8124 3.85807L98.3975 4.40992L99.6766 3.0538H97.8124V3.85807ZM52.7913 51.5903L52.2063 51.0384L51.7682 51.5028L52.1211 52.0348L52.7913 51.5903ZM95.5121 116V116.804H97.0106L96.1823 115.555L95.5121 116ZM63.1429 116L62.4692 116.439L62.7071 116.804H63.1429V116ZM34.0599 71.3897L34.7337 70.9505L34.1745 70.0928L33.4736 70.8391L34.0599 71.3897ZM27.734 78.1264L27.1477 77.5759L26.9297 77.808V78.1264H27.734ZM27.734 116V116.804H28.5383V116H27.734ZM0.376282 116H-0.427996V116.804H0.376282V116ZM0.376282 3.85807V3.0538H-0.427996V3.85807H0.376282ZM27.734 3.85807H28.5383V3.0538H27.734V3.85807ZM27.734 40.8279H26.9297V42.8578L28.32 41.3788L27.734 40.8279ZM62.4857 3.85807V3.0538H62.1379L61.8996 3.30722L62.4857 3.85807ZM97.2273 3.30622L52.2063 51.0384L53.3764 52.1421L98.3975 4.40992L97.2273 3.30622ZM52.1211 52.0348L94.8418 116.445L96.1823 115.555L53.4616 51.1457L52.1211 52.0348ZM95.5121 115.196H63.1429V116.804H95.5121V115.196ZM63.8166 115.561L34.7337 70.9505L33.3862 71.8289L62.4692 116.439L63.8166 115.561ZM33.4736 70.8391L27.1477 77.5759L28.3203 78.677L34.6462 71.9402L33.4736 70.8391ZM26.9297 78.1264V116H28.5383V78.1264H26.9297ZM27.734 115.196H0.376282V116.804H27.734V115.196ZM1.18056 116V3.85807H-0.427996V116H1.18056ZM0.376282 4.66235H27.734V3.0538H0.376282V4.66235ZM26.9297 3.85807V40.8279H28.5383V3.85807H26.9297ZM28.32 41.3788L63.0717 4.40893L61.8996 3.30722L27.148 40.2771L28.32 41.3788ZM62.4857 4.66235H97.8124V3.0538H62.4857V4.66235ZM196.315 20.4534L195.724 20.9994L195.727 21.0025L196.315 20.4534ZM203.873 89.4639L203.185 89.0482L203.183 89.051L203.873 89.4639ZM182.431 110.578L182.026 109.883L182.024 109.884L182.431 110.578ZM121.061 110.578L121.465 109.882L121.462 109.881L121.061 110.578ZM99.6182 89.4639L100.311 89.0558L100.308 89.051L99.6182 89.4639ZM99.6182 30.4764L98.9355 30.0512L98.9347 30.0524L99.6182 30.4764ZM121.964 8.70523L121.573 8.00274L121.567 8.00577L121.964 8.70523ZM126.647 38.199L127.266 38.7123L127.268 38.7107L126.647 38.199ZM129.441 84.6167L128.893 85.2056L128.895 85.2074L129.441 84.6167ZM180.541 76.319L181.244 76.7096L181.249 76.7017L180.541 76.319ZM174.462 35.57L175.023 34.9944L175.023 34.9939L174.462 35.57ZM151.705 1.70476C169.143 1.70476 183.799 8.10105 195.724 20.9994L196.905 19.9074C184.677 6.68045 169.593 0.0962076 151.705 0.0962076V1.70476ZM195.727 21.0025C206.107 32.112 211.284 45.1438 211.284 59.9701H212.893C212.893 44.7276 207.555 31.3055 196.903 19.9044L195.727 21.0025ZM211.284 59.9701C211.284 70.3403 208.613 80.0551 203.185 89.0482L204.562 89.8795C210.142 80.6342 212.893 70.6317 212.893 59.9701H211.284ZM203.183 89.051C197.996 97.7237 190.947 104.692 182.026 109.883L182.835 111.273C191.989 105.947 199.235 98.7852 204.563 89.8767L203.183 89.051ZM182.024 109.884C172.619 115.397 162.408 118.153 151.294 118.153V119.762C162.69 119.762 173.182 116.932 182.837 111.272L182.024 109.884ZM151.294 118.153C140.846 118.153 130.962 115.402 121.465 109.882L120.657 111.273C130.384 116.927 140.546 119.762 151.294 119.762V118.153ZM121.462 109.881C112.461 104.691 105.415 97.7241 100.311 89.0558L98.9251 89.8719C104.173 98.7849 111.422 105.949 120.659 111.275L121.462 109.881ZM100.308 89.051C94.882 79.9801 92.2069 70.0188 92.2069 59.0664H90.5984C90.5984 70.296 93.3455 80.5449 98.928 89.8767L100.308 89.051ZM92.2069 59.0664C92.2069 49.0307 94.8753 39.6473 100.302 30.9004L98.9347 30.0524C93.3522 39.051 90.5984 48.7276 90.5984 59.0664H92.2069ZM100.301 30.9016C106.068 21.6422 113.366 14.5101 122.361 9.4047L121.567 8.00577C112.324 13.2519 104.835 20.5791 98.9355 30.0512L100.301 30.9016ZM122.356 9.40771C131.523 4.29688 141.247 1.70476 151.705 1.70476V0.0962076C140.966 0.0962076 130.973 2.76203 121.573 8.00276L122.356 9.40771ZM151.458 25.4822C141.27 25.4822 132.747 29.5385 126.027 37.6872L127.268 38.7107C133.692 30.9213 141.765 27.0907 151.458 27.0907V25.4822ZM126.028 37.6857C120.726 44.082 118.038 51.7425 118.038 60.5452H119.647C119.647 52.0953 122.217 44.8035 127.266 38.7123L126.028 37.6857ZM118.038 60.5452C118.038 70.2207 121.667 78.4839 128.893 85.2056L129.988 84.0278C123.083 77.6046 119.647 69.7654 119.647 60.5452H118.038ZM128.895 85.2074C135.527 91.3357 143.195 94.3759 151.705 94.3759V92.7673C143.618 92.7673 136.335 89.8923 129.986 84.026L128.895 85.2074ZM151.705 94.3759C157.689 94.3759 163.42 92.7724 168.801 89.4934L167.964 88.1198C162.829 91.2489 157.386 92.7673 151.705 92.7673V94.3759ZM168.801 89.4934C174.17 86.2213 178.297 82.0143 181.244 76.7096L179.838 75.9284C177.034 80.9753 173.11 84.9838 167.964 88.1198L168.801 89.4934ZM181.249 76.7017C184.023 71.5724 185.453 66.0186 185.453 59.9701H183.845C183.845 65.752 182.481 71.0427 179.834 75.9363L181.249 76.7017ZM185.453 59.9701C185.453 50.1459 182.001 41.8036 175.023 34.9944L173.9 36.1456C180.56 42.6456 183.845 50.57 183.845 59.9701H185.453ZM175.023 34.9939C168.545 28.6848 160.703 25.4822 151.458 25.4822V27.0907C160.287 27.0907 167.726 30.132 173.9 36.1461L175.023 34.9939ZM278.469 116L277.766 116.391L277.995 116.804H278.469V116ZM257.601 78.455L258.304 78.0643L258.074 77.6508H257.601V78.455ZM256.533 78.5372L256.578 79.3402L256.612 79.3383L256.647 79.3334L256.533 78.5372ZM251.193 78.6194V77.8151H250.389V78.6194H251.193ZM251.193 116V116.804H251.997V116H251.193ZM223.835 116H223.031V116.804H223.835V116ZM223.835 3.85807V3.0538H223.031V3.85807H223.835ZM275.182 7.39075L274.867 8.13056L274.867 8.13075L275.182 7.39075ZM293.585 24.8898L294.309 24.5392L294.309 24.5389L293.585 24.8898ZM283.644 70.4038L283.162 69.7604L282.599 70.1828L282.943 70.797L283.644 70.4038ZM309.195 116V116.804H310.567L309.896 115.607L309.195 116ZM251.029 28.8333V28.029H250.224V28.8333H251.029ZM251.029 53.7263H250.224V54.5306H251.029V53.7263ZM267.706 50.3579L267.185 49.7457L267.178 49.7515L267.706 50.3579ZM279.172 115.609L258.304 78.0643L256.898 78.8458L277.766 116.391L279.172 115.609ZM257.601 77.6508C257.413 77.6508 257.044 77.6518 256.419 77.741L256.647 79.3334C257.172 79.2583 257.461 79.2593 257.601 79.2593V77.6508ZM256.488 77.7342C255.035 77.8149 253.66 77.8151 252.343 77.8151V79.4236C253.655 79.4236 255.073 79.4238 256.578 79.3402L256.488 77.7342ZM252.343 77.8151H251.193V79.4236H252.343V77.8151ZM250.389 78.6194V116H251.997V78.6194H250.389ZM251.193 115.196H223.835V116.804H251.193V115.196ZM224.64 116V3.85807H223.031V116H224.64ZM223.835 4.66235H252.343V3.0538H223.835V4.66235ZM252.343 4.66235C261.907 4.66235 269.423 5.80914 274.867 8.13056L275.498 6.65094C269.768 4.20735 262.004 3.0538 252.343 3.0538V4.66235ZM274.867 8.13075C282.988 11.5879 289.003 17.2834 292.861 25.2407L294.309 24.5389C290.28 16.2295 283.972 10.259 275.497 6.65075L274.867 8.13075ZM292.861 25.2404C295.356 30.3903 296.642 35.8571 296.642 41.7316H298.251C298.251 35.6115 296.908 29.9052 294.309 24.5392L292.861 25.2404ZM296.642 41.7316C296.642 47.1945 295.438 52.4168 293.023 57.4883L294.476 58.1799C296.99 52.8998 298.251 47.4419 298.251 41.7316H296.642ZM293.023 57.4883C290.61 62.5555 287.322 66.6401 283.162 69.7604L284.127 71.0473C288.511 67.7595 291.959 63.4642 294.476 58.1799L293.023 57.4883ZM282.943 70.797L308.493 116.393L309.896 115.607L284.346 70.0107L282.943 70.797ZM309.195 115.196H278.469V116.804H309.195V115.196ZM250.224 28.8333V53.7263H251.833V28.8333H250.224ZM251.029 54.5306H253.74V52.922H251.029V54.5306ZM253.74 54.5306C260.594 54.5306 265.455 53.3855 268.234 50.9644L267.178 49.7515C264.864 51.7668 260.523 52.922 253.74 52.922V54.5306ZM268.228 50.9702C270.684 48.8778 271.797 45.7387 271.797 41.7316H270.188C270.188 45.4471 269.165 48.0589 267.185 49.7457L268.228 50.9702ZM271.797 41.7316C271.797 36.9834 270.496 33.4673 267.437 31.1871C264.438 28.9519 259.904 28.029 253.74 28.029V29.6376C259.817 29.6376 263.909 30.5632 266.476 32.4768C268.983 34.3454 270.188 37.2785 270.188 41.7316H271.797ZM253.74 28.029H251.029V29.6376H253.74V28.029ZM344.027 3.85807H344.831V3.0538H344.027V3.85807ZM344.027 46.5788H343.222V47.3831H344.027V46.5788ZM378.943 46.5788V47.3831H379.747V46.5788H378.943ZM378.943 3.85807V3.0538H378.138V3.85807H378.943ZM406.3 3.85807H407.105V3.0538H406.3V3.85807ZM406.3 116V116.804H407.105V116H406.3ZM378.943 116H378.138V116.804H378.943V116ZM378.943 71.9648H379.747V71.1605H378.943V71.9648ZM344.027 71.9648V71.1605H343.222V71.9648H344.027ZM344.027 116V116.804H344.831V116H344.027ZM316.669 116H315.865V116.804H316.669V116ZM316.669 3.85807V3.0538H315.865V3.85807H316.669ZM343.222 3.85807V46.5788H344.831V3.85807H343.222ZM344.027 47.3831H378.943V45.7745H344.027V47.3831ZM379.747 46.5788V3.85807H378.138V46.5788H379.747ZM378.943 4.66235H406.3V3.0538H378.943V4.66235ZM405.496 3.85807V116H407.105V3.85807H405.496ZM406.3 115.196H378.943V116.804H406.3V115.196ZM379.747 116V71.9648H378.138V116H379.747ZM378.943 71.1605H344.027V72.7691H378.943V71.1605ZM343.222 71.9648V116H344.831V71.9648H343.222ZM344.027 115.196H316.669V116.804H344.027V115.196ZM317.473 116V3.85807H315.865V116H317.473ZM316.669 4.66235H344.027V3.0538H316.669V4.66235ZM497.08 116L496.32 116.261L496.506 116.804H497.08V116ZM489.111 92.7501L489.872 92.4893L489.686 91.9458H489.111V92.7501ZM448.609 92.7501V91.9458H448.034L447.848 92.4893L448.609 92.7501ZM440.64 116V116.804H441.214L441.401 116.261L440.64 116ZM411.721 116L410.968 115.719L410.562 116.804H411.721V116ZM453.62 3.85807V3.0538H453.062L452.867 3.57658L453.62 3.85807ZM484.182 3.85807L484.935 3.5761L484.74 3.0538H484.182V3.85807ZM526.163 116V116.804H527.323L526.917 115.718L526.163 116ZM457.235 67.3641L456.474 67.1037L456.11 68.1684H457.235V67.3641ZM480.485 67.3641V68.1684H481.608L481.246 67.1054L480.485 67.3641ZM468.901 33.2697L469.663 33.0109L468.904 30.7775L468.14 33.0093L468.901 33.2697ZM497.841 115.739L489.872 92.4893L488.35 93.0108L496.32 116.261L497.841 115.739ZM489.111 91.9458H448.609V93.5543H489.111V91.9458ZM447.848 92.4893L439.879 115.739L441.401 116.261L449.37 93.0108L447.848 92.4893ZM440.64 115.196H411.721V116.804H440.64V115.196ZM412.474 116.281L454.374 4.13957L452.867 3.57658L410.968 115.719L412.474 116.281ZM453.62 4.66235H484.182V3.0538H453.62V4.66235ZM483.429 4.14005L525.41 116.282L526.917 115.718L484.935 3.5761L483.429 4.14005ZM526.163 115.196H497.08V116.804H526.163V115.196ZM457.235 68.1684H480.485V66.5598H457.235V68.1684ZM481.246 67.1054L469.663 33.0109L468.14 33.5284L479.723 67.6228L481.246 67.1054ZM468.14 33.0093L456.474 67.1037L457.996 67.6245L469.662 33.53L468.14 33.0093ZM559.27 116V116.804H560.074V116H559.27ZM531.912 116H531.108V116.804H531.912V116ZM531.912 3.85807V3.0538H531.108V3.85807H531.912ZM554.505 3.85807L555.142 3.36706L554.901 3.0538H554.505V3.85807ZM603.141 66.9533L602.504 67.4443L603.945 69.3141V66.9533H603.141ZM603.141 3.85807V3.0538H602.337V3.85807H603.141ZM630.499 3.85807H631.303V3.0538H630.499V3.85807ZM630.499 116V116.804H631.303V116H630.499ZM607.906 116L607.269 116.491L607.511 116.804H607.906V116ZM559.27 52.9048L559.907 52.4137L558.466 50.544V52.9048H559.27ZM559.27 115.196H531.912V116.804H559.27V115.196ZM532.717 116V3.85807H531.108V116H532.717ZM531.912 4.66235H554.505V3.0538H531.912V4.66235ZM553.868 4.34909L602.504 67.4443L603.778 66.4623L555.142 3.36706L553.868 4.34909ZM603.945 66.9533V3.85807H602.337V66.9533H603.945ZM603.141 4.66235H630.499V3.0538H603.141V4.66235ZM629.695 3.85807V116H631.303V3.85807H629.695ZM630.499 115.196H607.906V116.804H630.499V115.196ZM608.543 115.509L559.907 52.4137L558.633 53.3958L607.269 116.491L608.543 115.509ZM558.466 52.9048V116H560.074V52.9048H558.466ZM706.325 116H705.521V116.804H706.325V116ZM706.325 69.9109H707.129V69.6959L707.022 69.5095L706.325 69.9109ZM668.287 3.85807V3.0538H666.896L667.59 4.25944L668.287 3.85807ZM699.095 3.85807L699.797 3.46552L699.567 3.0538H699.095V3.85807ZM720.045 41.3209L719.343 41.7134L720.045 42.9687L720.747 41.7134L720.045 41.3209ZM740.994 3.85807V3.0538H740.523L740.292 3.46552L740.994 3.85807ZM771.72 3.85807L772.417 4.25944L773.112 3.0538H771.72V3.85807ZM733.682 69.9109L732.986 69.5095L732.878 69.6959V69.9109H733.682ZM733.682 116V116.804H734.487V116H733.682ZM707.129 116V69.9109H705.521V116H707.129ZM707.022 69.5095L668.984 3.45671L667.59 4.25944L705.628 70.3123L707.022 69.5095ZM668.287 4.66235H699.095V3.0538H668.287V4.66235ZM698.393 4.25062L719.343 41.7134L720.747 40.9283L699.797 3.46552L698.393 4.25062ZM720.747 41.7134L741.696 4.25062L740.292 3.46552L719.343 40.9283L720.747 41.7134ZM740.994 4.66235H771.72V3.0538H740.994V4.66235ZM771.023 3.45671L732.986 69.5095L734.379 70.3123L772.417 4.25944L771.023 3.45671ZM732.878 69.9109V116H734.487V69.9109H732.878ZM733.682 115.196H706.325V116.804H733.682V115.196ZM839.661 116L838.9 116.261L839.087 116.804H839.661V116ZM831.692 92.7501L832.453 92.4893L832.267 91.9458H831.692V92.7501ZM791.19 92.7501V91.9458H790.615L790.429 92.4893L791.19 92.7501ZM783.22 116V116.804H783.795L783.981 116.261L783.22 116ZM754.302 116L753.548 115.719L753.143 116.804H754.302V116ZM796.201 3.85807V3.0538H795.643L795.448 3.57658L796.201 3.85807ZM826.763 3.85807L827.516 3.5761L827.32 3.0538H826.763V3.85807ZM868.744 116V116.804H869.904L869.497 115.718L868.744 116ZM799.816 67.3641L799.055 67.1037L798.691 68.1684H799.816V67.3641ZM823.066 67.3641V68.1684H824.188L823.827 67.1054L823.066 67.3641ZM811.482 33.2697L812.243 33.0109L811.485 30.7775L810.721 33.0093L811.482 33.2697ZM840.422 115.739L832.453 92.4893L830.931 93.0108L838.9 116.261L840.422 115.739ZM831.692 91.9458H791.19V93.5543H831.692V91.9458ZM790.429 92.4893L782.46 115.739L783.981 116.261L791.95 93.0108L790.429 92.4893ZM783.22 115.196H754.302V116.804H783.22V115.196ZM755.055 116.281L796.954 4.13957L795.448 3.57658L753.548 115.719L755.055 116.281ZM796.201 4.66235H826.763V3.0538H796.201V4.66235ZM826.01 4.14005L867.991 116.282L869.497 115.718L827.516 3.5761L826.01 4.14005ZM868.744 115.196H839.661V116.804H868.744V115.196ZM799.816 68.1684H823.066V66.5598H799.816V68.1684ZM823.827 67.1054L812.243 33.0109L810.72 33.5284L822.304 67.6228L823.827 67.1054ZM810.721 33.0093L799.055 67.1037L800.577 67.6245L812.243 33.53L810.721 33.0093ZM889.528 116H888.723V116.804H889.528V116ZM889.528 69.9109H890.332V69.6959L890.225 69.5095L889.528 69.9109ZM851.49 3.85807V3.0538H850.099L850.793 4.25944L851.49 3.85807ZM882.298 3.85807L883 3.46552L882.77 3.0538H882.298V3.85807ZM903.248 41.3209L902.546 41.7134L903.248 42.9687L903.95 41.7134L903.248 41.3209ZM924.197 3.85807V3.0538H923.726L923.495 3.46552L924.197 3.85807ZM954.923 3.85807L955.62 4.25944L956.315 3.0538H954.923V3.85807ZM916.885 69.9109L916.188 69.5095L916.081 69.6959V69.9109H916.885ZM916.885 116V116.804H917.69V116H916.885ZM890.332 116V69.9109H888.723V116H890.332ZM890.225 69.5095L852.187 3.45671L850.793 4.25944L888.831 70.3123L890.225 69.5095ZM851.49 4.66235H882.298V3.0538H851.49V4.66235ZM881.596 4.25062L902.546 41.7134L903.95 40.9283L883 3.46552L881.596 4.25062ZM903.95 41.7134L924.899 4.25062L923.495 3.46552L902.546 40.9283L903.95 41.7134ZM924.197 4.66235H954.923V3.0538H924.197V4.66235ZM954.226 3.45671L916.188 69.5095L917.582 70.3123L955.62 4.25944L954.226 3.45671ZM916.081 69.9109V116H917.69V69.9109H916.081ZM916.885 115.196H889.528V116.804H916.885V115.196ZM1022.86 116L1022.1 116.261L1022.29 116.804H1022.86V116ZM1014.9 92.7501L1015.66 92.4893L1015.47 91.9458H1014.9V92.7501ZM974.392 92.7501V91.9458H973.818L973.632 92.4893L974.392 92.7501ZM966.423 116V116.804H966.998L967.184 116.261L966.423 116ZM937.505 116L936.751 115.719L936.346 116.804H937.505V116ZM979.404 3.85807V3.0538H978.846L978.651 3.57658L979.404 3.85807ZM1009.97 3.85807L1010.72 3.5761L1010.52 3.0538H1009.97V3.85807ZM1051.95 116V116.804H1053.11L1052.7 115.718L1051.95 116ZM983.019 67.3641L982.258 67.1037L981.893 68.1684H983.019V67.3641ZM1006.27 67.3641V68.1684H1007.39L1007.03 67.1054L1006.27 67.3641ZM994.685 33.2697L995.446 33.0109L994.687 30.7775L993.924 33.0093L994.685 33.2697ZM1023.62 115.739L1015.66 92.4893L1014.13 93.0108L1022.1 116.261L1023.62 115.739ZM1014.9 91.9458H974.392V93.5543H1014.9V91.9458ZM973.632 92.4893L965.663 115.739L967.184 116.261L975.153 93.0108L973.632 92.4893ZM966.423 115.196H937.505V116.804H966.423V115.196ZM938.258 116.281L980.157 4.13957L978.651 3.57658L936.751 115.719L938.258 116.281ZM979.404 4.66235H1009.97V3.0538H979.404V4.66235ZM1009.21 4.14005L1051.19 116.282L1052.7 115.718L1010.72 3.5761L1009.21 4.14005ZM1051.95 115.196H1022.86V116.804H1051.95V115.196ZM983.019 68.1684H1006.27V66.5598H983.019V68.1684ZM1007.03 67.1054L995.446 33.0109L993.923 33.5284L1005.51 67.6228L1007.03 67.1054ZM993.924 33.0093L982.258 67.1037L983.78 67.6245L995.446 33.53L993.924 33.0093Z" fill="white"/>
</svg>
