<svg width="50" height="58" viewBox="0 0 50 58" fill="none" xmlns="http://www.w3.org/2000/svg">
<g clip-path="url(#clip0_128_339)">
<path d="M11.7345 0.349819C10.9027 0.839566 10.3186 1.85404 10.0885 3.14837C9.9646 3.93546 9.9115 8.8854 9.9469 19.0651C10 33.6176 10 33.8625 10.3717 34.6321C10.5664 35.0694 11.0265 35.6815 11.3982 35.9789L12.0531 36.5561H5.9823C0.19469 36.5561 -0.0530973 36.5386 0.353982 36.2587C1.02655 35.804 1.38053 35.3142 1.68142 34.4747C1.9115 33.7925 1.9469 31.7111 1.9469 18.278C1.9469 0.996984 2 1.78408 0.690265 0.612183L0 0H12.3009L11.7345 0.349819Z" fill="white"/>
<path d="M32.5839 0.349803C29.8582 1.31181 26.5131 3.97043 23.4865 7.52109C21.7343 9.60252 21.6812 9.65499 22.2122 8.57055C24.3007 4.44269 24.2653 1.34679 22.0883 0.297331C21.5396 0.0174754 21.8228 -1.5582e-05 27.5219 0.0174754H33.5396L32.5839 0.349803Z" fill="white"/>
<path d="M25.4336 25.2746C29.1327 31.134 32.2123 36.0315 32.2654 36.1539C32.3893 36.3288 27.823 43.8325 27.6991 43.6925C27.5752 43.5526 14.1061 22.2661 14.0354 22.0912C13.9646 21.9338 18.584 14.4477 18.6725 14.5701C18.6902 14.5876 21.7345 19.3976 25.4336 25.2746Z" fill="white"/>
<path d="M48.9381 18.4355C46.1417 19.5024 42.8319 22.1086 39.9647 25.5193C38.1948 27.6182 38.1417 27.6707 38.6549 26.6213C38.9204 26.114 39.3629 25.0121 39.6461 24.155C40.6903 21.0941 40.1594 18.8553 38.2302 18.1381C38.0886 18.0857 40.6726 18.0332 43.9824 18.0332H50.0001L48.9381 18.4355Z" fill="white"/>
<path d="M16.3012 49.9192C17.31 50.0941 18.3012 50.9161 18.8321 52.0181C19.5401 53.5048 20.3012 53.7322 21.5932 52.8052L22.3543 52.2629L21.4162 53.5923C20.0711 55.5163 18.5313 57.1079 17.5578 57.5627C16.3366 58.1574 14.372 58.1399 13.2746 57.5452C10.5313 56.0235 10.3189 52.1405 12.8852 50.4614C13.5578 50.0241 14.8675 49.6568 15.3985 49.7617C15.5401 49.7967 15.9472 49.8667 16.3012 49.9192Z" fill="white"/>
</g>
<defs>
<clipPath id="clip0_128_339">
<rect width="50" height="58" fill="white"/>
</clipPath>
</defs>
</svg>
